# xmcd
#
# Track frame offsets:
#	150
#	9745
#	20628
#	32615
#	43425
#	54785
#	65623
#	74723
#	84460
#	94043
#	103255
#	113518
#	123668
#	134995
#	145170
#	157965
#	168138
#	176073
#	187468
#	197420
#	207143
#	217790
#	232050
#	250923
#	260505
#	269270
#	282368
#
# Disc length: 3960 seconds
#
# Revision: 1
# Processed by: cddbd v1.5PL3 Copyright (c) Steve Scherf et al.
# Submitted via: CDex 1.50Beta5
#
DISCID=9b0f761b
DTITLE=Little Richard - Tne Best Of Little Richard
DYEAR=1900
DGENRE=R&B
TTITLE0=Long Tall Sally
TTITLE1=Tutti Frutti
TTITLE2=Slippin' And Slidin'
TTITLE3=She's Got It
TTITLE4=The Girl Can't Help It
TTITLE5=Lucille
TTITLE6=Jenny,Jenny
TTITLE7=Keep A Knockin'
TTITLE8=Good Golly Miss Molly
TTITLE9=Rip It Up
TTITLE10=Send Me Some Lovin'
TTITLE11=Ooh! My Soul
TTITLE12=Baby Face
TTITLE13=Hound Dog
TTITLE14=Whole Lotta Shakin' Going On
TTITLE15=Money Money
TTITLE16=Blueberry Hill
TTITLE17=Cherry Red
TTITLE18=Groovy Little Suzy
TTITLE19=Short Fat Fannie
TTITLE20=Only You
TTITLE21=Goin' Home Tomorrow
TTITLE22=I Don't Know What You Got
TTITLE23=Talkin' Bout Soul
TTITLE24=Goodnight Irene
TTITLE25=Dancin' All Around The World
TTITLE26=Without Love
EXTD=
EXTT0=
EXTT1=
EXTT2=
EXTT3=
EXTT4=
EXTT5=
EXTT6=
EXTT7=
EXTT8=
EXTT9=
EXTT10=
EXTT11=
EXTT12=
EXTT13=
EXTT14=
EXTT15=
EXTT16=
EXTT17=
EXTT18=
EXTT19=
EXTT20=
EXTT21=
EXTT22=
EXTT23=
EXTT24=
EXTT25=
EXTT26=
PLAYORDER=
